<svg width="512" height="512" viewBox="0 0 512 512" fill="none" xmlns="http://www.w3.org/2000/svg">
<path d="M16 16H496V496H16V16Z" stroke="url(#paint0_linear)" stroke-width="32"/>
<path d="M348.75 379.477C348.75 404.018 343.109 423.76 331.828 438.703C320.547 453.547 305.406 460.969 286.406 460.969C266.12 460.969 250.435 453.794 239.352 439.445L238.016 458H212.781V230H240.242V315.055C251.326 301.299 266.615 294.422 286.109 294.422C305.604 294.422 320.893 301.794 331.977 316.539C343.159 331.284 348.75 351.471 348.75 377.102V379.477ZM321.289 376.359C321.289 357.656 317.677 343.208 310.453 333.016C303.229 322.823 292.839 317.727 279.281 317.727C261.172 317.727 248.159 326.138 240.242 342.961V412.43C248.654 429.253 261.766 437.664 279.578 437.664C292.74 437.664 302.982 432.568 310.305 422.375C317.628 412.182 321.289 396.844 321.289 376.359Z" fill="url(#paint1_linear)"/>
<path d="M167.938 458C166.354 454.833 165.068 449.193 164.078 441.078C151.312 454.339 136.073 460.969 118.359 460.969C102.526 460.969 89.513 456.516 79.3203 447.609C69.2266 438.604 64.1797 427.224 64.1797 413.469C64.1797 396.745 70.513 383.781 83.1797 374.578C95.9453 365.276 113.857 360.625 136.914 360.625H163.633V348.008C163.633 338.409 160.763 330.789 155.023 325.148C149.284 319.409 140.823 316.539 129.641 316.539C119.844 316.539 111.63 319.013 105 323.961C98.3698 328.909 95.0547 334.896 95.0547 341.922H67.4453C67.4453 333.906 70.2656 326.188 75.9062 318.766C81.6458 311.245 89.3646 305.307 99.0625 300.953C108.859 296.599 119.596 294.422 131.273 294.422C149.779 294.422 164.276 299.073 174.766 308.375C185.255 317.578 190.698 330.294 191.094 346.523V420.445C191.094 435.19 192.974 446.917 196.734 455.625V458H167.938ZM122.367 437.07C130.977 437.07 139.141 434.844 146.859 430.391C154.578 425.938 160.169 420.148 163.633 413.023V380.07H142.109C108.464 380.07 91.6406 389.917 91.6406 409.609C91.6406 418.219 94.5104 424.948 100.25 429.797C105.99 434.646 113.362 437.07 122.367 437.07Z" fill="url(#paint2_linear)"/>
<defs>
<linearGradient id="paint0_linear" x1="256" y1="2.66152e-07" x2="256" y2="512" gradientUnits="userSpaceOnUse">
<stop stop-color="#4E044B" stop-opacity="0.75"/>
<stop offset="1" stop-color="#FECDFC"/>
</linearGradient>
<linearGradient id="paint1_linear" x1="272" y1="40.3077" x2="272" y2="537.846" gradientUnits="userSpaceOnUse">
<stop stop-color="#4E044B"/>
<stop offset="1" stop-color="#FECDFC"/>
</linearGradient>
<linearGradient id="paint2_linear" x1="136" y1="40.3077" x2="136" y2="537.846" gradientUnits="userSpaceOnUse">
<stop stop-color="#4E044B"/>
<stop offset="1" stop-color="#FECDFC"/>
</linearGradient>
</defs>
</svg>
